<?xml version="1.0" encoding="UTF-8"?>
<svg version="1.1" xmlns="http://www.w3.org/2000/svg" width="192" height="192">
<path d="M0 0 C1.84803223 0.01123901 1.84803223 0.01123901 3.73339844 0.02270508 C20.46482673 0.22114966 37.37632907 2.6272067 52.0625 11.25 C52.95195312 11.74886719 53.84140625 12.24773438 54.7578125 12.76171875 C60.04453232 15.80268711 60.04453232 15.80268711 62.0625 17.25 C62.0625 17.91 62.0625 18.57 62.0625 19.25 C62.619375 19.476875 63.17625 19.70375 63.75 19.9375 C66.72409588 21.62550036 68.78258865 23.71676517 71.0625 26.25 C71.0625 26.91 71.0625 27.57 71.0625 28.25 C71.7225 28.25 72.3825 28.25 73.0625 28.25 C81.89367031 41.20947643 85.17950669 52.6115806 83.19140625 68.1640625 C83.01942863 70.94697312 83.77061184 72.8097668 85.0625 75.25 C85.42108516 76.57676508 85.7643576 77.90835921 86.0625 79.25 C86.7225 79.25 87.3825 79.25 88.0625 79.25 C89.63084809 81.28260293 91.07711843 83.30662566 92.5 85.4375 C92.89509766 86.01564453 93.29019531 86.59378906 93.69726562 87.18945312 C100.79423132 97.64005985 100.79423132 97.64005985 100.0625 103.25 C97.84540144 106.90169174 93.98557788 107.23290574 90.0625 108.25 C88.75638374 109.3316196 88.75638374 109.3316196 88.9375 111.9375 C88.97217664 115.18594552 88.97217664 115.18594552 89.625 118.0625 C90.18953135 122.1755141 90.04297001 126.20023256 89.0625 130.25 C88.4025 130.58 87.7425 130.91 87.0625 131.25 C85.15217331 135.07065337 84.49055805 138.98572325 83.8203125 143.1640625 C82.76889384 146.05817365 81.74804219 146.70658193 79.0625 148.25 C76.12733068 148.73204069 73.34114239 149.06058261 70.38671875 149.27734375 C68.65428549 149.43151274 66.92186398 149.58581377 65.18945312 149.74023438 C62.47116269 149.96653383 59.75251523 150.1872995 57.03344727 150.40405273 C54.39979476 150.61863955 51.76849128 150.85346168 49.13671875 151.08984375 C48.33231857 151.14728256 47.5279184 151.20472137 46.69914246 151.26390076 C40.44709975 151.83501324 35.98335065 153.62744899 31.2265625 157.8984375 C29.34605109 161.69732297 28.98549928 165.70273272 28.4375 169.875 C28.19808615 171.59674213 27.95602544 173.31811891 27.7109375 175.0390625 C27.55890869 176.17915771 27.55890869 176.17915771 27.40380859 177.34228516 C27.0625 179.25 27.0625 179.25 26.0625 181.25 C20.38610406 180.53456701 15.16213788 178.77507656 9.75 177 C-1.51933899 173.36056535 -12.83962757 169.9729221 -24.234375 166.75 C-33.54687086 164.11343878 -42.79385808 161.43126024 -51.9375 158.25 C-51.8967334 157.63068604 -51.8559668 157.01137207 -51.81396484 156.37329102 C-51.63367849 153.52035254 -51.47298715 150.66661803 -51.3125 147.8125 C-51.24804688 146.83861328 -51.18359375 145.86472656 -51.1171875 144.86132812 C-50.63954361 135.93535788 -50.87977386 128.8148334 -57.0234375 121.93554688 C-57.53132813 121.39994141 -58.03921875 120.86433594 -58.5625 120.3125 C-63.9375 114.44703125 -63.9375 114.44703125 -63.9375 112.25 C-64.5975 112.25 -65.2575 112.25 -65.9375 112.25 C-68.91489302 108.11582735 -71.4212525 103.67607936 -73.9375 99.25 C-74.4428125 98.36570312 -74.948125 97.48140625 -75.46875 96.5703125 C-83.90773175 80.05254944 -82.69550478 61.63571328 -77.9375 44.25 C-75.60321206 37.63972098 -72.06149704 31.88682008 -67.9375 26.25 C-67.48632812 25.63125 -67.03515625 25.0125 -66.5703125 24.375 C-62.49325824 19.21533811 -57.44858826 15.76089237 -51.9375 12.25 C-51.25042969 11.79625 -50.56335938 11.3425 -49.85546875 10.875 C-35.05634404 1.82008622 -16.9643022 -0.1365078 0 0 Z M-34.9375 17.25 C-36.5771875 18.0234375 -36.5771875 18.0234375 -38.25 18.8125 C-42.17292844 20.89863024 -42.17292844 20.89863024 -45.9375 23.25 C-45.9375 23.91 -45.9375 24.57 -45.9375 25.25 C-46.9275 25.25 -47.9175 25.25 -48.9375 25.25 C-50.32653267 26.87053812 -51.65082828 28.54705213 -52.9375 30.25 C-53.73027344 30.98992188 -54.52304687 31.72984375 -55.33984375 32.4921875 C-58.21341584 35.54292719 -59.80538733 38.42151513 -61.625 42.1875 C-62.20636719 43.37214844 -62.78773437 44.55679688 -63.38671875 45.77734375 C-66.21246802 52.10502915 -67.32682514 57.19502938 -67.3125 64.0625 C-67.31088867 64.86204102 -67.30927734 65.66158203 -67.30761719 66.48535156 C-67.18228231 72.50879839 -66.24652775 77.12560286 -62.9375 82.25 C-62.36 83.28125 -61.7825 84.3125 -61.1875 85.375 C-52.38856528 96.61808325 -40.29482795 102.20454594 -26.3125 103.9375 C0.37220038 106.00968751 30.7021653 103.5083386 53.0625 87.25 C53.0625 86.59 53.0625 85.93 53.0625 85.25 C54.0525 85.25 55.0425 85.25 56.0625 85.25 C57.45153267 83.62946188 58.77582828 81.95294787 60.0625 80.25 C60.84625 79.569375 61.63 78.88875 62.4375 78.1875 C67.40094057 72.63317365 71.38521364 65.71423829 71.625 58.125 C71.12175025 50.67211092 68.65899254 43.75793888 65.0625 37.25 C64.4025 37.25 63.7425 37.25 63.0625 37.25 C62.876875 36.569375 62.69125 35.88875 62.5 35.1875 C58.6991674 27.42058121 51.41611177 23.2644091 44.0625 19.25 C43.0725 18.693125 42.0825 18.13625 41.0625 17.5625 C19.65161239 8.19523667 -13.75648401 6.97800352 -34.9375 17.25 Z " fill="#4F43E5" transform="translate(81.9375,1.75)"/>
<path d="M0 0 C0 0.99 0 1.98 0 3 C3.3 3 6.6 3 10 3 C10.33 2.34 10.66 1.68 11 1 C14.46941546 1.45822468 17.67395049 1.89131683 21 3 C21 3.66 21 4.32 21 5 C21.763125 5.268125 22.52625 5.53625 23.3125 5.8125 C27.63291139 7.72151899 27.63291139 7.72151899 29 10 C28.80614765 12.00314091 28.60206298 14.00867595 28.26171875 15.9921875 C27.93478435 18.5003111 28.31884912 20.5781302 29 23 C30.2065625 22.9690625 30.2065625 22.9690625 31.4375 22.9375 C34 23 34 23 35 24 C35.42959471 30.12172466 34.80120483 34.49418361 32 40 C29.4375 41.0625 29.4375 41.0625 27 41 C26.01 40.505 26.01 40.505 25 40 C24.731875 40.598125 24.46375 41.19625 24.1875 41.8125 C23 44 23 44 21.3125 45.5 C20.879375 45.995 20.44625 46.49 20 47 C20.22757731 49.16299211 20.22757731 49.16299211 21 51 C15.85654247 54.72457269 8.52945115 57.5235999 2.15625 56.578125 C1.08890625 56.29195312 1.08890625 56.29195312 0 56 C0 54.68 0 53.36 0 52 C-3.63 52 -7.26 52 -11 52 C-11.33 52.66 -11.66 53.32 -12 54 C-18.85869019 53.57133186 -23.55773778 50.93627267 -28.75390625 46.50390625 C-29.16511719 46.00761719 -29.57632812 45.51132813 -30 45 C-29.6875 42.3125 -29.6875 42.3125 -29 40 C-28.34 40 -27.68 40 -27 40 C-27.495 39.236875 -27.99 38.47375 -28.5 37.6875 C-30 35 -30 35 -30 32 C-30.804375 32.020625 -31.60875 32.04125 -32.4375 32.0625 C-35 32 -35 32 -36 31 C-36.90271299 24.23705184 -35.38245131 19.81358818 -32 14 C-31.278125 14.103125 -30.55625 14.20625 -29.8125 14.3125 C-26.79751351 14.22441494 -26.79751351 14.22441494 -24.25 11.875 C-21.76023755 9.18842616 -21.76023755 9.18842616 -21.5625 5.875 C-21 3 -21 3 -18.5625 1.25 C-5.53505535 -3.32103321 -5.53505535 -3.32103321 0 0 Z M-13.27734375 19.4765625 C-15.8415212 23.25807672 -16.65437795 26.56275765 -15.8125 31.0703125 C-14.27609965 34.71926334 -11.33914833 37.00204168 -8 39 C-2.90783029 40.62202317 1.62683458 40.4654798 6.6875 38.75 C10.46460306 36.75454933 13.07415627 34.85168745 15 31 C15.40137875 26.82566105 15.26194303 24.50448287 13.3125 20.75 C10.30122968 17.16902989 7.79751466 15.24676514 3.09765625 14.6015625 C-6.02152062 14.4959399 -6.02152062 14.4959399 -13.27734375 19.4765625 Z " fill="#4F43E4" transform="translate(60,33)"/>
<path d="M0 0 C1.41623216 -0.05447047 2.83308191 -0.09300508 4.25 -0.125 C5.03890625 -0.14820312 5.8278125 -0.17140625 6.640625 -0.1953125 C9.20731941 0.0171622 10.7916067 0.71345895 13 2 C13 3.32 13 4.64 13 6 C15.31 6 17.62 6 20 6 C24 12.5 24 12.5 24 17 C22.68 17 21.36 17 20 17 C20 18.32 20 19.64 20 21 C20.66 21 21.32 21 22 21 C21.51128818 26.49800797 21.51128818 26.49800797 19.28125 28.6875 C16.53787707 30.26587895 14.88845039 30.3113862 11.75 30.1875 C10.85796875 30.16042969 9.9659375 30.13335937 9.046875 30.10546875 C8.37140625 30.07066406 7.6959375 30.03585938 7 30 C7 30.99 7 31.98 7 33 C5.39592672 33.02708567 3.7917215 33.04643483 2.1875 33.0625 C0.84751953 33.07990234 0.84751953 33.07990234 -0.51953125 33.09765625 C-3 33 -3 33 -6 32 C-6 30.68 -6 29.36 -6 28 C-7.093125 27.95875 -8.18625 27.9175 -9.3125 27.875 C-13 27 -13 27 -14.9375 24.1875 C-16 21 -16 21 -16 17 C-14.68 17 -13.36 17 -12 17 C-12 15.35 -12 13.7 -12 12 C-12.99 12 -13.98 12 -15 12 C-14.66093677 8.94843089 -13.73958327 7.66517849 -11.8125 5.1875 C-9 3 -9 3 -5.8125 3.25 C-4.884375 3.4975 -3.95625 3.745 -3 4 C-2.34 3.67 -1.68 3.34 -1 3 C-0.67 2.01 -0.34 1.02 0 0 Z M-4 13 C-5.41142752 15.8845108 -5.41142752 15.8845108 -5 19 C-3.1264113 22.0405988 -3.1264113 22.0405988 0 24 C3.83094301 24.54727757 6.28890902 24.24207353 9.9375 23 C12.39589088 21.00793362 12.39589088 21.00793362 12.6875 17.0625 C12.46745258 13.44171977 12.12682376 13.11529433 9.25 10.5 C3.55292992 7.87058304 0.6104097 9.10676514 -4 13 Z " fill="#4F43E4" transform="translate(111,27)"/>
<path d="M0 0 C3.3 0.33 6.6 0.66 10 1 C10.33 2.65 10.66 4.3 11 6 C12.98 6 14.96 6 17 6 C18.5625 8.8125 18.5625 8.8125 20 12 C19.67 12.99 19.34 13.98 19 15 C18.01 15 17.02 15 16 15 C16.66 16.98 17.32 18.96 18 21 C15.9375 23.5 15.9375 23.5 13 26 C9.1875 26.3125 9.1875 26.3125 6 26 C5.67 26.66 5.34 27.32 5 28 C1.37 28 -2.26 28 -6 28 C-6.66 26.35 -7.32 24.7 -8 23 C-10.48400985 22.33652369 -10.48400985 22.33652369 -13 22 C-15.1519437 18.77208445 -15.20086443 17.71599191 -15 14 C-14.01 14 -13.02 14 -12 14 C-12.33 11.36 -12.66 8.72 -13 6 C-9.4298519 2.57265783 -6.76996749 3 -2 3 C-1.34 2.01 -0.68 1.02 0 0 Z M-1.875 8.5 C-4.29358324 9.87912059 -4.29358324 9.87912059 -4.875 12.9375 C-5.18303651 16.04198085 -5.18303651 16.04198085 -4 19 C-0.38329991 20.46059042 1.97876194 21.24963597 5.8125 20.3125 C8.27944525 19.04459233 8.27944525 19.04459233 10 16 C9.65394389 13.71602968 9.03295481 12.06590963 8 10 C4.4319913 8.62768896 1.92427705 7.83925617 -1.875 8.5 Z " fill="#4F43E5" transform="translate(109,65)"/>
<path d="M0 0 C2.82390939 2.75667345 3.11617941 3.3219263 3.375 7.0625 C3.11281505 10.76357594 2.81765565 11.36984435 0.0625 14.125 C-4.81537991 16.16484069 -8.23560512 16.26012876 -13.25 14.625 C-16.1100485 11.84907058 -16.34734262 9.62356189 -16.58203125 5.72265625 C-16.375 3.5625 -16.375 3.5625 -14.625 1.0625 C-9.69057383 -2.22711744 -5.37564697 -2.28962741 0 0 Z " fill="#5044E5" transform="translate(66.375,53.4375)"/>
</svg>
